<svg width="4824" height="529" viewBox="0 0 4824 529" fill="none" xmlns="http://www.w3.org/2000/svg">
<path d="M0.5 252.5C0.5 224.5 6 199.667 17 178C28.3333 156.333 43.6667 139.667 63 128C82.3333 116.333 103.833 110.5 127.5 110.5C145.5 110.5 162.667 114.5 179 122.5C195.333 130.167 208.333 140.5 218 153.5V22H289V392H218V351C209.333 364.667 197.167 375.667 181.5 384C165.833 392.333 147.667 396.5 127 396.5C103.667 396.5 82.3333 390.5 63 378.5C43.6667 366.5 28.3333 349.667 17 328C6 306 0.5 280.833 0.5 252.5ZM218.5 253.5C218.5 236.5 215.167 222 208.5 210C201.833 197.667 192.833 188.333 181.5 182C170.167 175.333 158 172 145 172C132 172 120 175.167 109 181.5C98 187.833 89 197.167 82 209.5C75.3333 221.5 72 235.833 72 252.5C72 269.167 75.3333 283.833 82 296.5C89 308.833 98 318.333 109 325C120.333 331.667 132.333 335 145 335C158 335 170.167 331.833 181.5 325.5C192.833 318.833 201.833 309.5 208.5 297.5C215.167 285.167 218.5 270.5 218.5 253.5ZM339.367 252.5C339.367 224.5 344.867 199.667 355.867 178C367.201 156.333 382.367 139.667 401.367 128C420.701 116.333 442.201 110.5 465.867 110.5C486.534 110.5 504.534 114.667 519.867 123C535.534 131.333 548.034 141.833 557.367 154.5V115H627.867V392H557.367V351.5C548.367 364.5 535.867 375.333 519.867 384C504.201 392.333 486.034 396.5 465.367 396.5C442.034 396.5 420.701 390.5 401.367 378.5C382.367 366.5 367.201 349.667 355.867 328C344.867 306 339.367 280.833 339.367 252.5ZM557.367 253.5C557.367 236.5 554.034 222 547.367 210C540.701 197.667 531.701 188.333 520.367 182C509.034 175.333 496.867 172 483.867 172C470.867 172 458.867 175.167 447.867 181.5C436.867 187.833 427.867 197.167 420.867 209.5C414.201 221.5 410.867 235.833 410.867 252.5C410.867 269.167 414.201 283.833 420.867 296.5C427.867 308.833 436.867 318.333 447.867 325C459.201 331.667 471.201 335 483.867 335C496.867 335 509.034 331.833 520.367 325.5C531.701 318.833 540.701 309.5 547.367 297.5C554.034 285.167 557.367 270.5 557.367 253.5ZM811.734 327.5L881.734 115H956.234L853.734 392H768.734L666.734 115H741.734L811.734 327.5ZM1031.05 82C1018.72 82 1008.38 78.1667 1000.05 70.5C992.051 62.5 988.051 52.6666 988.051 41C988.051 29.3333 992.051 19.6666 1000.05 12C1008.38 3.99998 1018.72 -1.95503e-05 1031.05 -1.95503e-05C1043.38 -1.95503e-05 1053.55 3.99998 1061.55 12C1069.88 19.6666 1074.05 29.3333 1074.05 41C1074.05 52.6666 1069.88 62.5 1061.55 70.5C1053.55 78.1667 1043.38 82 1031.05 82ZM1065.55 115V392H995.551V115H1065.55ZM1288.21 111C1321.21 111 1347.88 121.5 1368.21 142.5C1388.54 163.167 1398.71 192.167 1398.71 229.5V392H1328.71V239C1328.71 217 1323.21 200.167 1312.21 188.5C1301.21 176.5 1286.21 170.5 1267.21 170.5C1247.88 170.5 1232.54 176.5 1221.21 188.5C1210.21 200.167 1204.71 217 1204.71 239V392H1134.71V115H1204.71V149.5C1214.04 137.5 1225.88 128.167 1240.21 121.5C1254.88 114.5 1270.88 111 1288.21 111ZM1447.28 253.5C1447.28 224.833 1453.11 199.833 1464.78 178.5C1476.44 156.833 1492.61 140.167 1513.28 128.5C1533.94 116.5 1557.61 110.5 1584.28 110.5C1618.61 110.5 1646.94 119.167 1669.28 136.5C1691.94 153.5 1707.11 177.5 1714.78 208.5H1639.28C1635.28 196.5 1628.44 187.167 1618.78 180.5C1609.44 173.5 1597.78 170 1583.78 170C1563.78 170 1547.94 177.333 1536.28 192C1524.61 206.333 1518.78 226.833 1518.78 253.5C1518.78 279.833 1524.61 300.333 1536.28 315C1547.94 329.333 1563.78 336.5 1583.78 336.5C1612.11 336.5 1630.61 323.833 1639.28 298.5H1714.78C1707.11 328.5 1691.94 352.333 1669.28 370C1646.61 387.667 1618.28 396.5 1584.28 396.5C1557.61 396.5 1533.94 390.667 1513.28 379C1492.61 367 1476.44 350.333 1464.78 329C1453.11 307.333 1447.28 282.167 1447.28 253.5ZM1801.56 82C1789.23 82 1778.89 78.1667 1770.56 70.5C1762.56 62.5 1758.56 52.6666 1758.56 41C1758.56 29.3333 1762.56 19.6666 1770.56 12C1778.89 3.99998 1789.23 -1.95503e-05 1801.56 -1.95503e-05C1813.89 -1.95503e-05 1824.06 3.99998 1832.06 12C1840.39 19.6666 1844.56 29.3333 1844.56 41C1844.56 52.6666 1840.39 62.5 1832.06 70.5C1824.06 78.1667 1813.89 82 1801.56 82ZM1836.06 115V392H1766.06V115H1836.06Z" fill="#60A4FC"/>
<path d="M2118.22 184V243H1906.22V184H2118.22ZM2178.72 253.5C2178.72 224.833 2184.56 199.833 2196.22 178.5C2207.89 156.833 2224.06 140.167 2244.72 128.5C2265.39 116.5 2289.06 110.5 2315.72 110.5C2350.06 110.5 2378.39 119.167 2400.72 136.5C2423.39 153.5 2438.56 177.5 2446.22 208.5H2370.72C2366.72 196.5 2359.89 187.167 2350.22 180.5C2340.89 173.5 2329.22 170 2315.22 170C2295.22 170 2279.39 177.333 2267.72 192C2256.06 206.333 2250.22 226.833 2250.22 253.5C2250.22 279.833 2256.06 300.333 2267.72 315C2279.39 329.333 2295.22 336.5 2315.22 336.5C2343.56 336.5 2362.06 323.833 2370.72 298.5H2446.22C2438.56 328.5 2423.39 352.333 2400.72 370C2378.06 387.667 2349.72 396.5 2315.72 396.5C2289.06 396.5 2265.39 390.667 2244.72 379C2224.06 367 2207.89 350.333 2196.22 329C2184.56 307.333 2178.72 282.167 2178.72 253.5ZM2620.5 396.5C2593.84 396.5 2569.84 390.667 2548.5 379C2527.17 367 2510.34 350.167 2498 328.5C2486 306.833 2480 281.833 2480 253.5C2480 225.167 2486.17 200.167 2498.5 178.5C2511.17 156.833 2528.34 140.167 2550 128.5C2571.67 116.5 2595.84 110.5 2622.5 110.5C2649.17 110.5 2673.34 116.5 2695 128.5C2716.67 140.167 2733.67 156.833 2746 178.5C2758.67 200.167 2765 225.167 2765 253.5C2765 281.833 2758.5 306.833 2745.5 328.5C2732.84 350.167 2715.5 367 2693.5 379C2671.84 390.667 2647.5 396.5 2620.5 396.5ZM2620.5 335.5C2633.17 335.5 2645 332.5 2656 326.5C2667.34 320.167 2676.34 310.833 2683 298.5C2689.67 286.167 2693 271.167 2693 253.5C2693 227.167 2686 207 2672 193C2658.34 178.667 2641.5 171.5 2621.5 171.5C2601.5 171.5 2584.67 178.667 2571 193C2557.67 207 2551 227.167 2551 253.5C2551 279.833 2557.5 300.167 2570.5 314.5C2583.84 328.5 2600.5 335.5 2620.5 335.5ZM2969.85 111C3002.85 111 3029.52 121.5 3049.85 142.5C3070.18 163.167 3080.35 192.167 3080.35 229.5V392H3010.35V239C3010.35 217 3004.85 200.167 2993.85 188.5C2982.85 176.5 2967.85 170.5 2948.85 170.5C2929.52 170.5 2914.18 176.5 2902.85 188.5C2891.85 200.167 2886.35 217 2886.35 239V392H2816.35V115H2886.35V149.5C2895.68 137.5 2907.52 128.167 2921.85 121.5C2936.52 114.5 2952.52 111 2969.85 111ZM3252.92 396.5C3230.25 396.5 3209.92 392.5 3191.92 384.5C3173.92 376.167 3159.58 365 3148.92 351C3138.58 337 3132.92 321.5 3131.92 304.5H3202.42C3203.75 315.167 3208.92 324 3217.92 331C3227.25 338 3238.75 341.5 3252.42 341.5C3265.75 341.5 3276.08 338.833 3283.42 333.5C3291.08 328.167 3294.92 321.333 3294.92 313C3294.92 304 3290.25 297.333 3280.92 293C3271.92 288.333 3257.42 283.333 3237.42 278C3216.75 273 3199.75 267.833 3186.42 262.5C3173.42 257.167 3162.08 249 3152.42 238C3143.08 227 3138.42 212.167 3138.42 193.5C3138.42 178.167 3142.75 164.167 3151.42 151.5C3160.42 138.833 3173.08 128.833 3189.42 121.5C3206.08 114.167 3225.58 110.5 3247.92 110.5C3280.92 110.5 3307.25 118.833 3326.92 135.5C3346.58 151.833 3357.42 174 3359.42 202H3292.42C3291.42 191 3286.75 182.333 3278.42 176C3270.42 169.333 3259.58 166 3245.92 166C3233.25 166 3223.42 168.333 3216.42 173C3209.75 177.667 3206.42 184.167 3206.42 192.5C3206.42 201.833 3211.08 209 3220.42 214C3229.75 218.667 3244.25 223.5 3263.92 228.5C3283.92 233.5 3300.42 238.667 3313.42 244C3326.42 249.333 3337.58 257.667 3346.92 269C3356.58 280 3361.58 294.667 3361.92 313C3361.92 329 3357.42 343.333 3348.42 356C3339.75 368.667 3327.08 378.667 3310.42 386C3294.08 393 3274.92 396.5 3252.92 396.5ZM3680.88 115V392H3610.38V357C3601.38 369 3589.55 378.5 3574.88 385.5C3560.55 392.167 3544.88 395.5 3527.88 395.5C3506.21 395.5 3487.05 391 3470.38 382C3453.71 372.667 3440.55 359.167 3430.88 341.5C3421.55 323.5 3416.88 302.167 3416.88 277.5V115H3486.88V267.5C3486.88 289.5 3492.38 306.5 3503.38 318.5C3514.38 330.167 3529.38 336 3548.38 336C3567.71 336 3582.88 330.167 3593.88 318.5C3604.88 306.5 3610.38 289.5 3610.38 267.5V115H3680.88ZM3819.95 22V392H3749.95V22H3819.95ZM3970.61 172.5V306.5C3970.61 315.833 3972.77 322.667 3977.11 327C3981.77 331 3989.44 333 4000.11 333H4032.61V392H3988.61C3929.61 392 3900.11 363.333 3900.11 306V172.5H3867.11V115H3900.11V46.5H3970.61V115H4032.61V172.5H3970.61ZM4118.45 82C4106.12 82 4095.79 78.1667 4087.45 70.5C4079.45 62.5 4075.45 52.6666 4075.45 41C4075.45 29.3333 4079.45 19.6666 4087.45 12C4095.79 3.99998 4106.12 -1.95503e-05 4118.45 -1.95503e-05C4130.79 -1.95503e-05 4140.95 3.99998 4148.95 12C4157.29 19.6666 4161.45 29.3333 4161.45 41C4161.45 52.6666 4157.29 62.5 4148.95 70.5C4140.95 78.1667 4130.79 82 4118.45 82ZM4152.95 115V392H4082.95V115H4152.95ZM4375.61 111C4408.61 111 4435.28 121.5 4455.61 142.5C4475.95 163.167 4486.11 192.167 4486.11 229.5V392H4416.11V239C4416.11 217 4410.61 200.167 4399.61 188.5C4388.61 176.5 4373.61 170.5 4354.61 170.5C4335.28 170.5 4319.95 176.5 4308.61 188.5C4297.61 200.167 4292.11 217 4292.11 239V392H4222.11V115H4292.11V149.5C4301.45 137.5 4313.28 128.167 4327.61 121.5C4342.28 114.5 4358.28 111 4375.61 111ZM4661.18 110.5C4681.85 110.5 4700.01 114.667 4715.68 123C4731.35 131 4743.68 141.5 4752.68 154.5V115H4823.18V394C4823.18 419.667 4818.01 442.5 4807.68 462.5C4797.35 482.833 4781.85 498.833 4761.18 510.5C4740.51 522.5 4715.51 528.5 4686.18 528.5C4646.85 528.5 4614.51 519.333 4589.18 501C4564.18 482.667 4550.01 457.667 4546.68 426H4616.18C4619.85 438.667 4627.68 448.667 4639.68 456C4652.01 463.667 4666.85 467.5 4684.18 467.5C4704.51 467.5 4721.01 461.333 4733.68 449C4746.35 437 4752.68 418.667 4752.68 394V351C4743.68 364 4731.18 374.833 4715.18 383.5C4699.51 392.167 4681.51 396.5 4661.18 396.5C4637.85 396.5 4616.51 390.5 4597.18 378.5C4577.85 366.5 4562.51 349.667 4551.18 328C4540.18 306 4534.68 280.833 4534.68 252.5C4534.68 224.5 4540.18 199.667 4551.18 178C4562.51 156.333 4577.68 139.667 4596.68 128C4616.01 116.333 4637.51 110.5 4661.18 110.5ZM4752.68 253.5C4752.68 236.5 4749.35 222 4742.68 210C4736.01 197.667 4727.01 188.333 4715.68 182C4704.35 175.333 4692.18 172 4679.18 172C4666.18 172 4654.18 175.167 4643.18 181.5C4632.18 187.833 4623.18 197.167 4616.18 209.5C4609.51 221.5 4606.18 235.833 4606.18 252.5C4606.18 269.167 4609.51 283.833 4616.18 296.5C4623.18 308.833 4632.18 318.333 4643.18 325C4654.51 331.667 4666.51 335 4679.18 335C4692.18 335 4704.35 331.833 4715.68 325.5C4727.01 318.833 4736.01 309.5 4742.68 297.5C4749.35 285.167 4752.68 270.5 4752.68 253.5Z" fill="#181A1E"/>
</svg>
